<svg width="45" height="21" viewBox="0 0 45 21" fill="none" xmlns="http://www.w3.org/2000/svg">
<path d="M11.75 1.02734V20H7.42578L4.85938 11.375V20H0.734375V1.02734H4.85938L7.625 9.57031V1.02734H11.75ZM18.6758 1.02734V20H13.7422V1.02734H18.6758ZM32.4102 1.02734L29.5859 9.59375L32.6797 20H27.582L25.5898 11.8672V20H20.6562V1.02734H25.5898V8.39844L27.7812 1.02734H32.4102ZM44.8203 12.1367C44.8203 14.043 44.7734 15.3945 44.6797 16.1914C44.5938 16.9805 44.3125 17.7031 43.8359 18.3594C43.3672 19.0156 42.7305 19.5195 41.9258 19.8711C41.1211 20.2227 40.1836 20.3984 39.1133 20.3984C38.0977 20.3984 37.1836 20.2344 36.3711 19.9062C35.5664 19.5703 34.918 19.0703 34.4258 18.4062C33.9336 17.7422 33.6406 17.0195 33.5469 16.2383C33.4531 15.457 33.4062 14.0898 33.4062 12.1367V8.89062C33.4062 6.98438 33.4492 5.63672 33.5352 4.84766C33.6289 4.05078 33.9102 3.32422 34.3789 2.66797C34.8555 2.01172 35.4961 1.50781 36.3008 1.15625C37.1055 0.804688 38.043 0.628906 39.1133 0.628906C40.1289 0.628906 41.0391 0.796875 41.8438 1.13281C42.6562 1.46094 43.3086 1.95703 43.8008 2.62109C44.293 3.28516 44.5859 4.00781 44.6797 4.78906C44.7734 5.57031 44.8203 6.9375 44.8203 8.89062V12.1367ZM39.8867 5.90234C39.8867 5.01953 39.8359 4.45703 39.7344 4.21484C39.6406 3.96484 39.4414 3.83984 39.1367 3.83984C38.8789 3.83984 38.6797 3.94141 38.5391 4.14453C38.4062 4.33984 38.3398 4.92578 38.3398 5.90234V14.7617C38.3398 15.8633 38.3828 16.543 38.4688 16.8008C38.5625 17.0586 38.7734 17.1875 39.1016 17.1875C39.4375 17.1875 39.6523 17.0391 39.7461 16.7422C39.8398 16.4453 39.8867 15.7383 39.8867 14.6211V5.90234Z" fill="#111111"/>
</svg>
