<svg width="26" height="26" viewBox="0 0 26 26" fill="none" xmlns="http://www.w3.org/2000/svg">
<path d="M4.51755 0.495117L0.254852 0.51709L0.267059 3.01709L2.85495 3.00488L6.9736 12.8853L5.47702 15.2803C4.97702 16.0803 4.95116 17.0908 5.40866 17.9146C5.86616 18.7383 6.73423 19.25 7.67673 19.25H22.75V16.75H7.67673L7.59616 16.6035L9.06589 14.25H18.4018C19.3106 14.25 20.1469 13.7559 20.5869 12.9634L25.0913 4.85791C25.3075 4.47041 25.3016 3.99774 25.0766 3.61524C24.8516 3.23399 24.44 3 23.9975 3H5.56247L4.51755 0.495117ZM6.60251 5.5H21.8735L18.4018 11.75H9.20749L6.60251 5.5ZM7.74997 20.5C7.08693 20.5 6.45104 20.7634 5.9822 21.2322C5.51336 21.7011 5.24997 22.337 5.24997 23C5.24997 23.663 5.51336 24.2989 5.9822 24.7678C6.45104 25.2366 7.08693 25.5 7.74997 25.5C8.41301 25.5 9.0489 25.2366 9.51774 24.7678C9.98658 24.2989 10.25 23.663 10.25 23C10.25 22.337 9.98658 21.7011 9.51774 21.2322C9.0489 20.7634 8.41301 20.5 7.74997 20.5ZM20.25 20.5C19.5869 20.5 18.951 20.7634 18.4822 21.2322C18.0134 21.7011 17.75 22.337 17.75 23C17.75 23.663 18.0134 24.2989 18.4822 24.7678C18.951 25.2366 19.5869 25.5 20.25 25.5C20.913 25.5 21.5489 25.2366 22.0177 24.7678C22.4866 24.2989 22.75 23.663 22.75 23C22.75 22.337 22.4866 21.7011 22.0177 21.2322C21.5489 20.7634 20.913 20.5 20.25 20.5Z" fill="black"/>
</svg>
