<svg width="26" height="24" viewBox="0 0 26 24" fill="none" xmlns="http://www.w3.org/2000/svg">
<path d="M7.54492 0C3.38958 0 0 3.38958 0 7.54492C0 11.2832 2.90055 15.0847 5.66016 18.1191C8.41976 21.1536 11.1719 23.3691 11.1719 23.3691C11.1802 23.3758 11.1887 23.3823 11.1973 23.3887C11.6428 23.7251 12.2018 23.9439 12.8086 23.9844C12.8717 23.9957 12.9358 24.0009 13 24C13.0635 24.0008 13.1269 23.9956 13.1895 23.9844C13.1927 23.9837 13.196 23.9831 13.1992 23.9824C13.8029 23.9404 14.3592 23.7237 14.8027 23.3887C14.8113 23.3823 14.8198 23.3758 14.8281 23.3691C14.8281 23.3691 17.5802 21.1536 20.3398 18.1191C23.0995 15.0847 26 11.2832 26 7.54492C26 3.38958 22.6104 0 18.4551 0C15.841 0 13.9899 1.43855 13 2.45703C12.0101 1.43855 10.159 0 7.54492 0ZM7.54492 2C10.2761 2 11.9378 4.24245 12.1035 4.47461C12.1882 4.63757 12.3161 4.77408 12.4732 4.86916C12.6303 4.96425 12.8105 5.01425 12.9941 5.01367C13.002 5.01376 13.0098 5.01376 13.0176 5.01367C13.0254 5.01311 13.0332 5.01246 13.041 5.01172C13.0665 5.01074 13.0919 5.00878 13.1172 5.00586C13.2797 4.98803 13.4353 4.93063 13.5705 4.8387C13.7057 4.74676 13.8163 4.62309 13.8926 4.47852C14.0499 4.25751 15.7161 2 18.4551 2C21.5297 2 24 4.47026 24 7.54492C24 10.1477 21.4998 13.8701 18.8594 16.7734C16.228 19.6669 13.6078 21.7805 13.5898 21.7949C13.4142 21.9256 13.2191 22 13 22C12.7809 22 12.5858 21.9256 12.4102 21.7949C12.3922 21.7805 9.77203 19.6669 7.14062 16.7734C4.50023 13.8701 2 10.1477 2 7.54492C2 4.47026 4.47026 2 7.54492 2Z" fill="black"/>
</svg>
